<svg xmlns="http://www.w3.org/2000/svg" viewBox="-45.000000686645535 415.8535919189453 1297.9871826171875 376.2799997329712"> <svg xmlns="http://www.w3.org/2000/svg" xmlns:xlink="http://www.w3.org/1999/xlink" version="1.1" x="526.1815894012451" y="485.8535919189453" viewBox="65.83000183105469 49.999996185302734 368.34002685546875 400" xml:space="preserve" height="169" width="155.6236322414108" preserveAspectRatio="xMinYMin" enable-background="new 0 0 500 500" style="overflow: visible;"><g id="Layer_2" style=""></g><polygon class="st82" points="123.31,182.67 67.42,311.62 80.38,311.62 123.31,214.2 166.23,311.62 179.19,311.62   " style="fill: #CD8E33; fill-opacity: 1;"></polygon><polygon class="st82" points="376.7,182.67 320.81,311.62 333.77,311.62 376.7,214.2 419.62,311.62 432.58,311.62   " style="fill: #CD8E33; fill-opacity: 1;"></polygon><path class="st83" d="M123.3,380.37c31.74,0,57.47-25.73,57.47-57.47H65.83C65.83,354.64,91.56,380.37,123.3,380.37z" style="fill: #CD8E33; fill-opacity: 1;"></path><path class="st83" d="M376.7,380.37c31.74,0,57.47-25.73,57.47-57.47H319.23C319.23,354.64,344.96,380.37,376.7,380.37z" style="fill: #CD8E33; fill-opacity: 1;"></path><path class="st82" d="M73.39,50c10.23,79.31,68.76,69.98,118.7,110.51C250,207.49,250,324.71,250,450    c-6.9-79.5-25.85-160.32-57.91-193.79C133.51,195.05,52.64,164.88,73.39,50z" style="fill: #CD8E33; fill-opacity: 1;"></path><path class="st82" d="M426.61,50c-10.23,79.31-68.76,69.98-118.7,110.51C250,207.49,250,324.71,250,450    c6.9-79.5,25.85-160.32,57.91-193.79C366.49,195.05,447.36,164.88,426.61,50z" style="fill: #CD8E33; fill-opacity: 1;"></path><circle class="st82" cx="250" cy="98.74" r="48.74" style="fill: #CD8E33; fill-opacity: 1;"></circle><path class="st82" d="M343.31,438.77c-8.44,0-16.31-2.11-20.99-5.62c-4.68-3.51-12.56-5.62-20.99-5.62H198.67    c-8.44,0-16.31,2.11-20.99,5.62c-4.68,3.51-12.56,5.62-20.99,5.62h-45.92V450h278.46v-11.23H343.31z" style="fill: #CD8E33; fill-opacity: 1;"></path><path class="st82" d="M237.46,353.04h6.27L250,450h-49.23C200.77,450,237.46,427.53,237.46,353.04z" style="fill: #CD8E33; fill-opacity: 1;"></path><path class="st82" d="M262.54,353.04h-6.27L250,450h49.23C299.23,450,262.54,427.53,262.54,353.04z" style="fill: #CD8E33; fill-opacity: 1;"></path><rect x="243.79" y="311.62" class="st82" width="12.42" height="136.61" style="fill: #CD8E33; fill-opacity: 1;"></rect><g id="Layer_3" class="st84" style="display: none;"></g></svg> <svg y="711.8535919189453" viewBox="0.2199999988079071 3.7200000286102295 439.2200012207031 10.279999732971191" x="384.38359184265136" height="10.279999732971191" width="439.2200012207031" xmlns="http://www.w3.org/2000/svg" style="overflow: visible;"><g fill="#CD8E33" fill-opacity="1" style=""><path d="M1.65 12.55L0.22 12.55L3.60 3.87L5.12 3.87L8.41 12.55L6.90 12.55L4.00 4.58L4.55 4.52L1.65 12.55ZM6.54 10.19L1.89 10.19L2.30 9.02L6.42 9.02L6.54 10.19ZM16.00 12.68L16.00 12.68Q13.96 12.68 12.92 11.57Q11.88 10.47 11.88 8.20L11.88 8.20Q11.88 5.98 12.91 4.86Q13.94 3.73 16.00 3.73L16.00 3.73Q16.69 3.73 17.37 3.90Q18.06 4.07 18.69 4.37L18.69 4.37L18.69 5.66Q18.06 5.28 17.43 5.10Q16.80 4.93 16.19 4.93L16.19 4.93Q15.24 4.93 14.61 5.27Q13.98 5.60 13.67 6.32Q13.36 7.03 13.36 8.22L13.36 8.22Q13.36 9.37 13.68 10.09Q13.99 10.82 14.62 11.15Q15.25 11.48 16.22 11.48L16.22 11.48Q16.81 11.48 17.43 11.30Q18.06 11.13 18.69 10.76L18.69 10.76L18.69 12.05Q18.30 12.25 17.85 12.39Q17.39 12.53 16.93 12.60Q16.46 12.68 16.00 12.68ZM26.99 12.68L26.99 12.68Q24.95 12.68 23.91 11.57Q22.87 10.47 22.87 8.20L22.87 8.20Q22.87 5.98 23.89 4.86Q24.92 3.73 26.99 3.73L26.99 3.73Q27.68 3.73 28.36 3.90Q29.04 4.07 29.68 4.37L29.68 4.37L29.68 5.66Q29.04 5.28 28.41 5.10Q27.78 4.93 27.17 4.93L27.17 4.93Q26.22 4.93 25.59 5.27Q24.96 5.60 24.65 6.32Q24.35 7.03 24.35 8.22L24.35 8.22Q24.35 9.37 24.66 10.09Q24.97 10.82 25.60 11.15Q26.23 11.48 27.21 11.48L27.21 11.48Q27.79 11.48 28.42 11.30Q29.04 11.13 29.68 10.76L29.68 10.76L29.68 12.05Q29.29 12.25 28.83 12.39Q28.38 12.53 27.91 12.60Q27.44 12.68 26.99 12.68ZM37.95 12.69L37.95 12.69Q36.66 12.69 35.76 12.19Q34.85 11.70 34.39 10.71Q33.92 9.72 33.92 8.22L33.92 8.22Q33.92 5.99 34.95 4.86Q35.98 3.73 37.95 3.73L37.95 3.73Q39.25 3.73 40.14 4.23Q41.04 4.72 41.52 5.71Q41.99 6.71 41.99 8.22L41.99 8.22Q41.99 10.43 40.96 11.56Q39.92 12.69 37.95 12.69ZM37.95 11.45L37.95 11.45Q38.82 11.45 39.38 11.12Q39.95 10.79 40.23 10.08Q40.51 9.36 40.51 8.20L40.51 8.20Q40.51 7.06 40.23 6.35Q39.95 5.64 39.38 5.31Q38.82 4.98 37.95 4.98L37.95 4.98Q37.09 4.98 36.52 5.32Q35.95 5.66 35.67 6.36Q35.39 7.07 35.39 8.22L35.39 8.22Q35.39 9.36 35.67 10.08Q35.95 10.79 36.52 11.12Q37.09 11.45 37.95 11.45ZM50.19 12.73L50.19 12.73Q48.43 12.73 47.49 11.82Q46.55 10.92 46.55 9.14L46.55 9.14L46.55 3.87L48.02 3.87L48.02 9.13Q48.02 10.35 48.56 10.94Q49.09 11.53 50.15 11.53L50.15 11.53Q51.19 11.53 51.75 10.94Q52.30 10.35 52.30 9.13L52.30 9.13L52.30 3.87L53.68 3.87L53.68 9.14Q53.68 10.32 53.25 11.13Q52.83 11.93 52.05 12.33Q51.27 12.73 50.19 12.73ZM59.96 12.55L58.59 12.55L58.59 3.87L59.97 3.87L64.97 10.80L64.57 11.58L64.57 3.87L65.94 3.87L65.94 12.55L64.65 12.55L59.50 5.47L59.96 4.84L59.96 12.55ZM74.33 12.55L72.90 12.55L72.90 5.08L70.10 5.08L70.10 3.87L77.14 3.87L77.14 5.08L74.33 5.08L74.33 12.55ZM81.15 12.55L79.72 12.55L83.10 3.87L84.62 3.87L87.91 12.55L86.40 12.55L83.50 4.58L84.05 4.52L81.15 12.55ZM86.03 10.19L81.38 10.19L81.80 9.02L85.92 9.02L86.03 10.19ZM95.52 12.55L92.01 12.55L92.01 3.87L95.23 3.87Q96.28 3.87 96.93 4.16Q97.59 4.45 97.90 4.97Q98.22 5.50 98.22 6.23L98.22 6.23Q98.22 6.80 97.99 7.14Q97.77 7.49 97.47 7.70Q97.16 7.90 96.89 8.09L96.89 8.09L96.72 7.79Q97.21 7.88 97.67 8.14Q98.12 8.41 98.42 8.87Q98.71 9.33 98.71 10.02L98.71 10.02Q98.71 10.91 98.31 11.47Q97.90 12.03 97.18 12.29Q96.46 12.55 95.52 12.55L95.52 12.55ZM93.46 8.65L93.46 11.35L95.51 11.35Q95.97 11.35 96.36 11.24Q96.76 11.13 97.00 10.82Q97.24 10.52 97.24 9.96L97.24 9.96Q97.24 9.53 97.08 9.27Q96.93 9.01 96.67 8.87Q96.42 8.74 96.10 8.69Q95.78 8.65 95.47 8.65L95.47 8.65L93.46 8.65ZM93.44 5.08L93.44 7.49L95.39 7.49Q95.73 7.49 96.04 7.40Q96.36 7.32 96.56 7.07Q96.77 6.83 96.77 6.34L96.77 6.34Q96.77 5.62 96.36 5.35Q95.95 5.08 95.28 5.08L95.28 5.08L93.44 5.08ZM108.85 12.55L103.27 12.55L103.27 3.87L104.72 3.87L104.72 11.32L108.85 11.32L108.85 12.55ZM118.78 12.55L113.10 12.55L113.10 3.87L118.78 3.87L118.78 5.08L114.54 5.08L114.54 7.59L118.24 7.59L118.24 8.81L114.53 8.81L114.53 11.34L118.78 11.34L118.78 12.55ZM135.71 12.55L130.13 12.55L130.13 3.87L131.57 3.87L131.57 11.32L135.71 11.32L135.71 12.55ZM145.64 12.55L139.96 12.55L139.96 3.87L145.64 3.87L145.64 5.08L141.40 5.08L141.40 7.59L145.09 7.59L145.09 8.81L141.39 8.81L141.39 11.34L145.64 11.34L145.64 12.55ZM151.06 12.55L149.63 12.55L153.01 3.87L154.53 3.87L157.82 12.55L156.31 12.55L153.41 4.58L153.96 4.52L151.06 12.55ZM155.95 10.19L151.29 10.19L151.71 9.02L155.83 9.02L155.95 10.19ZM164.97 12.55L161.93 12.55L161.93 3.87L164.97 3.87Q167.08 3.87 168.10 4.97Q169.13 6.06 169.13 8.20L169.13 8.20Q169.13 10.35 168.10 11.45Q167.08 12.55 164.97 12.55L164.97 12.55ZM163.36 5.07L163.36 11.34L164.83 11.34Q166.28 11.34 166.97 10.59Q167.66 9.84 167.66 8.20L167.66 8.20Q167.66 6.58 166.97 5.82Q166.28 5.07 164.83 5.07L164.83 5.07L163.36 5.07ZM179.39 12.55L173.71 12.55L173.71 3.87L179.39 3.87L179.39 5.08L175.15 5.08L175.15 7.59L178.84 7.59L178.84 8.81L175.14 8.81L175.14 11.34L179.39 11.34L179.39 12.55ZM185.61 12.55L184.18 12.55L184.18 3.87L188.03 3.87Q189.38 3.87 190.11 4.53Q190.83 5.19 190.83 6.49L190.83 6.49Q190.83 7.16 190.55 7.74Q190.28 8.31 189.76 8.67Q189.24 9.04 188.53 9.09L188.53 9.09L188.68 8.65L191.26 12.55L189.48 12.55L187.07 8.66L187.73 9.27L185.61 9.27L185.61 12.55ZM185.61 5.08L185.61 8.10L187.63 8.10Q188.49 8.10 188.91 7.72Q189.33 7.35 189.33 6.58L189.33 6.58Q189.33 5.86 189.00 5.47Q188.67 5.08 187.86 5.08L187.86 5.08L185.61 5.08ZM198.34 12.69L198.34 12.69Q197.69 12.69 197.20 12.62Q196.70 12.55 196.30 12.39Q195.90 12.23 195.47 12.01L195.47 12.01L195.47 10.58Q195.98 10.99 196.70 11.25Q197.42 11.51 198.25 11.51L198.25 11.51Q199.06 11.51 199.45 11.17Q199.85 10.84 199.85 10.26L199.85 10.26Q199.85 9.80 199.56 9.52Q199.26 9.24 198.78 9.05Q198.30 8.85 197.76 8.66L197.76 8.66Q197.34 8.50 196.94 8.33Q196.53 8.15 196.21 7.88Q195.88 7.62 195.69 7.20Q195.49 6.79 195.49 6.18L195.49 6.18Q195.49 5.75 195.66 5.30Q195.83 4.86 196.18 4.50Q196.52 4.15 197.09 3.93Q197.65 3.72 198.45 3.72L198.45 3.72Q198.97 3.72 199.35 3.78Q199.73 3.85 200.08 3.98Q200.42 4.12 200.82 4.32L200.82 4.32L200.82 5.72Q200.50 5.51 200.17 5.33Q199.84 5.15 199.45 5.03Q199.06 4.91 198.58 4.90L198.58 4.90Q198.03 4.89 197.68 5.03Q197.33 5.17 197.15 5.43Q196.96 5.69 196.96 6.03L196.96 6.03Q196.96 6.49 197.19 6.75Q197.42 7.02 197.83 7.20Q198.25 7.37 198.80 7.54L198.80 7.54Q199.28 7.70 199.73 7.89Q200.19 8.09 200.54 8.37Q200.89 8.65 201.10 9.06Q201.32 9.48 201.32 10.09L201.32 10.09Q201.32 10.76 201.01 11.36Q200.71 11.95 200.05 12.32Q199.39 12.69 198.34 12.69ZM207.31 12.55L205.88 12.55L205.88 3.87L207.31 3.87L207.31 7.61L211.32 7.61L211.32 3.87L212.76 3.87L212.76 12.55L211.32 12.55L211.32 8.85L207.31 8.85L207.31 12.55ZM219.12 12.55L217.67 12.55L217.67 3.87L219.12 3.87L219.12 12.55ZM227.46 9.44L225.46 9.44L225.46 12.55L224.03 12.55L224.03 3.87L227.46 3.87Q228.94 3.87 229.76 4.56Q230.57 5.25 230.57 6.62L230.57 6.62Q230.57 7.98 229.76 8.71Q228.94 9.44 227.46 9.44L227.46 9.44ZM225.46 5.08L225.46 8.22L227.28 8.22Q227.84 8.22 228.19 8.09Q228.54 7.97 228.74 7.74Q228.93 7.51 229.00 7.24Q229.07 6.97 229.07 6.67L229.07 6.67Q229.07 6.37 229.00 6.08Q228.93 5.80 228.74 5.57Q228.54 5.34 228.19 5.21Q227.84 5.08 227.28 5.08L227.28 5.08L225.46 5.08ZM234.79 14.00L233.69 14.00L234.65 11.45L235.94 11.45L234.79 14.00ZM253.12 12.55L247.44 12.55L247.44 3.87L253.12 3.87L253.12 5.08L248.89 5.08L248.89 7.59L252.58 7.59L252.58 8.81L248.87 8.81L248.87 11.34L253.12 11.34L253.12 12.55ZM259.29 12.55L257.92 12.55L257.92 3.87L259.30 3.87L264.30 10.80L263.90 11.58L263.90 3.87L265.27 3.87L265.27 12.55L263.98 12.55L258.83 5.47L259.29 4.84L259.29 12.55ZM273.95 12.69L273.95 12.69Q272.64 12.69 271.72 12.21Q270.80 11.73 270.32 10.73Q269.84 9.74 269.84 8.20L269.84 8.20Q269.84 6.68 270.32 5.69Q270.80 4.69 271.72 4.21Q272.64 3.73 273.94 3.73L273.94 3.73Q274.70 3.73 275.43 3.88Q276.16 4.03 276.84 4.33L276.84 4.33L276.84 5.71Q276.15 5.37 275.48 5.15Q274.82 4.93 274.12 4.93L274.12 4.93Q273.17 4.93 272.54 5.27Q271.91 5.60 271.60 6.32Q271.28 7.03 271.28 8.20L271.28 8.20Q271.28 9.36 271.60 10.09Q271.92 10.82 272.55 11.15Q273.17 11.49 274.07 11.49L274.07 11.49Q274.52 11.49 274.94 11.42Q275.35 11.35 275.73 11.22L275.73 11.22L275.73 9.15L273.91 9.15L273.91 7.93L277.16 7.93L277.16 11.91Q276.41 12.30 275.60 12.49Q274.79 12.69 273.95 12.69ZM282.70 12.55L281.27 12.55L284.65 3.87L286.17 3.87L289.46 12.55L287.95 12.55L285.05 4.58L285.60 4.52L282.70 12.55ZM287.59 10.19L282.93 10.19L283.35 9.02L287.47 9.02L287.59 10.19ZM297.10 12.69L297.10 12.69Q295.79 12.69 294.87 12.21Q293.96 11.73 293.48 10.73Q292.99 9.74 292.99 8.20L292.99 8.20Q292.99 6.68 293.48 5.69Q293.96 4.69 294.87 4.21Q295.79 3.73 297.09 3.73L297.09 3.73Q297.86 3.73 298.58 3.88Q299.31 4.03 299.99 4.33L299.99 4.33L299.99 5.71Q299.30 5.37 298.64 5.15Q297.97 4.93 297.27 4.93L297.27 4.93Q296.32 4.93 295.69 5.27Q295.06 5.60 294.75 6.32Q294.44 7.03 294.44 8.20L294.44 8.20Q294.44 9.36 294.76 10.09Q295.07 10.82 295.70 11.15Q296.32 11.49 297.22 11.49L297.22 11.49Q297.67 11.49 298.09 11.42Q298.51 11.35 298.88 11.22L298.88 11.22L298.88 9.15L297.06 9.15L297.06 7.93L300.31 7.93L300.31 11.91Q299.56 12.30 298.75 12.49Q297.95 12.69 297.10 12.69ZM310.91 12.55L305.23 12.55L305.23 3.87L310.91 3.87L310.91 5.08L306.67 5.08L306.67 7.59L310.36 7.59L310.36 8.81L306.66 8.81L306.66 11.34L310.91 11.34L310.91 12.55ZM318.75 12.55L315.71 12.55L315.71 3.87L318.75 3.87Q320.85 3.87 321.88 4.97Q322.91 6.06 322.91 8.20L322.91 8.20Q322.91 10.35 321.88 11.45Q320.85 12.55 318.75 12.55L318.75 12.55ZM317.14 5.07L317.14 11.34L318.60 11.34Q320.06 11.34 320.75 10.59Q321.44 9.84 321.44 8.20L321.44 8.20Q321.44 6.58 320.75 5.82Q320.06 5.07 318.60 5.07L318.60 5.07L317.14 5.07ZM335.43 12.55L334.04 12.55L334.04 3.87L335.53 3.87L338.64 8.46L337.79 8.57L341.06 3.87L342.52 3.87L342.52 12.55L341.09 12.55L341.09 5.10L341.50 5.37L338.20 9.93L335.05 5.41L335.43 4.99L335.43 12.55ZM353.12 12.55L347.44 12.55L347.44 3.87L353.12 3.87L353.12 5.08L348.88 5.08L348.88 7.59L352.57 7.59L352.57 8.81L348.87 8.81L348.87 11.34L353.12 11.34L353.12 12.55ZM359.31 12.55L357.92 12.55L357.92 3.87L359.41 3.87L362.52 8.46L361.67 8.57L364.94 3.87L366.41 3.87L366.41 12.55L364.98 12.55L364.98 5.10L365.38 5.37L362.08 9.93L358.93 5.41L359.31 4.99L359.31 12.55ZM374.83 12.55L371.32 12.55L371.32 3.87L374.53 3.87Q375.58 3.87 376.24 4.16Q376.90 4.45 377.21 4.97Q377.52 5.50 377.52 6.23L377.52 6.23Q377.52 6.80 377.30 7.14Q377.08 7.49 376.77 7.70Q376.47 7.90 376.19 8.09L376.19 8.09L376.03 7.79Q376.52 7.88 376.97 8.14Q377.43 8.41 377.72 8.87Q378.01 9.33 378.01 10.02L378.01 10.02Q378.01 10.91 377.61 11.47Q377.21 12.03 376.49 12.29Q375.77 12.55 374.83 12.55L374.83 12.55ZM372.76 8.65L372.76 11.35L374.82 11.35Q375.27 11.35 375.67 11.24Q376.06 11.13 376.30 10.82Q376.55 10.52 376.55 9.96L376.55 9.96Q376.55 9.53 376.39 9.27Q376.23 9.01 375.98 8.87Q375.73 8.74 375.41 8.69Q375.09 8.65 374.78 8.65L374.78 8.65L372.76 8.65ZM372.75 5.08L372.75 7.49L374.70 7.49Q375.04 7.49 375.35 7.40Q375.66 7.32 375.87 7.07Q376.08 6.83 376.08 6.34L376.08 6.34Q376.08 5.62 375.67 5.35Q375.26 5.08 374.58 5.08L374.58 5.08L372.75 5.08ZM388.26 12.55L382.58 12.55L382.58 3.87L388.26 3.87L388.26 5.08L384.02 5.08L384.02 7.59L387.71 7.59L387.71 8.81L384.01 8.81L384.01 11.34L388.26 11.34L388.26 12.55ZM394.49 12.55L393.06 12.55L393.06 3.87L396.90 3.87Q398.26 3.87 398.98 4.53Q399.70 5.19 399.70 6.49L399.70 6.49Q399.70 7.16 399.43 7.74Q399.15 8.31 398.63 8.67Q398.11 9.04 397.40 9.09L397.40 9.09L397.55 8.65L400.13 12.55L398.35 12.55L395.94 8.66L396.60 9.27L394.49 9.27L394.49 12.55ZM394.49 5.08L394.49 8.10L396.50 8.10Q397.36 8.10 397.78 7.72Q398.20 7.35 398.20 6.58L398.20 6.58Q398.20 5.86 397.87 5.47Q397.54 5.08 396.73 5.08L396.73 5.08L394.49 5.08ZM407.21 12.69L407.21 12.69Q406.56 12.69 406.07 12.62Q405.57 12.55 405.17 12.39Q404.77 12.23 404.34 12.01L404.34 12.01L404.34 10.58Q404.85 10.99 405.57 11.25Q406.29 11.51 407.12 11.51L407.12 11.51Q407.93 11.51 408.32 11.17Q408.72 10.84 408.72 10.26L408.72 10.26Q408.72 9.80 408.43 9.52Q408.14 9.24 407.65 9.05Q407.17 8.85 406.63 8.66L406.63 8.66Q406.21 8.50 405.81 8.33Q405.41 8.15 405.08 7.88Q404.76 7.62 404.56 7.20Q404.37 6.79 404.37 6.18L404.37 6.18Q404.37 5.75 404.53 5.30Q404.70 4.86 405.05 4.50Q405.39 4.15 405.96 3.93Q406.52 3.72 407.32 3.72L407.32 3.72Q407.84 3.72 408.22 3.78Q408.60 3.85 408.95 3.98Q409.29 4.12 409.70 4.32L409.70 4.32L409.70 5.72Q409.37 5.51 409.04 5.33Q408.71 5.15 408.32 5.03Q407.93 4.91 407.45 4.90L407.45 4.90Q406.90 4.89 406.55 5.03Q406.20 5.17 406.02 5.43Q405.83 5.69 405.83 6.03L405.83 6.03Q405.83 6.49 406.06 6.75Q406.29 7.02 406.71 7.20Q407.12 7.37 407.67 7.54L407.67 7.54Q408.15 7.70 408.60 7.89Q409.06 8.09 409.41 8.37Q409.76 8.65 409.97 9.06Q410.19 9.48 410.19 10.09L410.19 10.09Q410.19 10.76 409.88 11.36Q409.58 11.95 408.92 12.32Q408.27 12.69 407.21 12.69ZM416.18 12.55L414.75 12.55L414.75 3.87L416.18 3.87L416.18 7.61L420.19 7.61L420.19 3.87L421.63 3.87L421.63 12.55L420.19 12.55L420.19 8.85L416.18 8.85L416.18 12.55ZM427.99 12.55L426.54 12.55L426.54 3.87L427.99 3.87L427.99 12.55ZM436.33 9.44L434.33 9.44L434.33 12.55L432.90 12.55L432.90 3.87L436.33 3.87Q437.81 3.87 438.63 4.56Q439.44 5.25 439.44 6.62L439.44 6.62Q439.44 7.98 438.63 8.71Q437.81 9.44 436.33 9.44L436.33 9.44ZM434.33 5.08L434.33 8.22L436.15 8.22Q436.71 8.22 437.06 8.09Q437.41 7.97 437.61 7.74Q437.80 7.51 437.87 7.24Q437.94 6.97 437.94 6.67L437.94 6.67Q437.94 6.37 437.87 6.08Q437.80 5.80 437.61 5.57Q437.41 5.34 437.06 5.21Q436.71 5.08 436.15 5.08L436.15 5.08L434.33 5.08Z" transform="translate(0, 0)"></path></g></svg> <svg y="674.8535919189453" viewBox="1.1200000047683716 8.220000267028809 1157.9871826171875 23.59000015258789" x="24.999999313354465" height="23.59000015258789" width="1157.9871826171875" xmlns="http://www.w3.org/2000/svg" style="overflow: visible;"><g fill="#CD8E33" fill-opacity="1" style=""><path d="M4 12.13L3.65 8.35L23.46 27.94L23.81 31.68L4 12.13ZM3.68 28.96L3.78 28.96L3.78 31.23L1.12 31.23L1.12 30.91Q1.12 30.91 1.41 30.91Q1.70 30.91 1.73 30.91L1.73 30.91Q2.53 30.91 3.10 30.34Q3.68 29.76 3.68 28.96L3.68 28.96ZM7.14 28.96L7.23 28.96Q7.23 29.76 7.81 30.34Q8.38 30.91 9.18 30.91L9.18 30.91Q9.22 30.91 9.50 30.91Q9.79 30.91 9.79 30.91L9.79 30.91L9.79 31.23L7.14 31.23L7.14 28.96ZM3.33 8.35L3.65 8.35L7.20 12.22L7.23 31.23L3.68 31.23L3.68 12.35Q3.68 10.62 3.50 9.49Q3.33 8.35 3.33 8.35L3.33 8.35ZM20.26 8.83L23.74 8.83L23.74 27.58Q23.74 28.74 23.84 29.66Q23.94 30.59 24.02 31.14Q24.10 31.68 24.10 31.68L24.10 31.68L23.81 31.68L20.26 27.68L20.26 8.83ZM23.65 8.83L26.30 8.83L26.30 9.15Q26.30 9.15 26.02 9.15Q25.73 9.15 25.73 9.15L25.73 9.15Q24.93 9.15 24.35 9.71Q23.78 10.27 23.74 11.10L23.74 11.10L23.65 11.10L23.65 8.83ZM17.66 9.15L17.66 8.83L20.32 8.83L20.32 11.10L20.26 11.10Q20.22 10.27 19.66 9.71Q19.10 9.15 18.27 9.15L18.27 9.15Q18.27 9.15 17.98 9.15Q17.70 9.15 17.66 9.15L17.66 9.15ZM36.42 8.83L40.32 8.83L40.32 31.23L36.42 31.23L36.42 8.83ZM40.22 29.98L48.80 29.98L49.34 31.23L40.22 31.23L40.22 29.98ZM40.22 19.58L47.58 19.58L47.58 20.80L40.22 20.80L40.22 19.58ZM40.22 8.83L49.09 8.83L49.09 10.08L40.22 10.08L40.22 8.83ZM50.72 25.15L51.04 25.15L49.44 31.23L43.46 31.23L44.61 29.98Q46.24 29.98 47.42 29.39Q48.61 28.80 49.41 27.70Q50.21 26.59 50.72 25.15L50.72 25.15ZM44.93 20.74L47.58 20.74L47.58 23.49L47.26 23.49L47.26 23.14Q47.26 22.14 46.59 21.47Q45.92 20.80 44.93 20.80L44.93 20.80L44.93 20.74ZM47.26 16.90L47.58 16.90L47.58 19.65L44.93 19.65L44.93 19.58Q45.92 19.55 46.59 18.88Q47.26 18.21 47.26 17.22L47.26 17.22L47.26 16.90ZM45.95 9.98L49.09 9.98L49.09 13.31L48.77 13.31L48.77 12.86Q48.77 11.65 48 10.86Q47.23 10.08 45.95 10.05L45.95 10.05L45.95 9.98ZM49.09 8.26L49.09 8.26L49.09 9.18L45.18 8.83Q45.89 8.83 46.67 8.74Q47.46 8.64 48.13 8.51Q48.80 8.38 49.09 8.26ZM36.42 28.90L36.51 28.90L36.51 31.23L33.95 31.23L33.95 30.91Q33.95 30.91 34.16 30.91Q34.37 30.91 34.37 30.91L34.37 30.91Q35.20 30.91 35.79 30.32Q36.38 29.73 36.42 28.90L36.42 28.90ZM36.51 8.83L36.51 11.17L36.42 11.17Q36.38 10.34 35.79 9.74Q35.20 9.15 34.37 9.15L34.37 9.15Q34.37 9.15 34.16 9.15Q33.95 9.15 33.95 9.15L33.95 9.15L33.95 8.83L36.51 8.83ZM67.20 31.74L58.94 9.02L63.26 9.02L68.67 25.02L67.20 31.74ZM74.08 8.32L74.37 8.32L74.85 11.30L68.26 28.19Q68.26 28.19 68.06 28.74Q67.87 29.28 67.70 30.10Q67.52 30.91 67.49 31.74L67.49 31.74L67.20 31.74L66.43 28.26L74.08 8.32ZM72.54 13.76L74.37 8.35L81.31 24.99L80.06 31.74L72.54 13.76ZM84.90 9.02L86.98 9.02L80.96 28.19Q80.96 28.19 80.80 28.77Q80.64 29.34 80.50 30.16Q80.35 30.98 80.35 31.74L80.35 31.74L80.06 31.74L79.33 28.58L84.90 9.02ZM86.30 11.14L84.29 11.14Q84.54 10.18 84.13 9.66Q83.71 9.15 83.07 9.15L83.07 9.15L82.78 9.15L82.78 8.83L89.38 8.83L89.38 9.15Q89.38 9.15 89.25 9.15Q89.12 9.15 89.12 9.15L89.12 9.15Q88.38 9.15 87.52 9.62Q86.66 10.08 86.30 11.14L86.30 11.14ZM64.03 11.14L64.03 11.14L59.71 11.14Q59.30 10.08 58.46 9.62Q57.63 9.15 56.90 9.15L56.90 9.15Q56.90 9.15 56.77 9.15Q56.64 9.15 56.64 9.15L56.64 9.15L56.64 8.83L65.50 8.83L65.50 9.15L65.22 9.15Q64.61 9.15 64.14 9.66Q63.68 10.18 64.03 11.14ZM126.72 8.83L130.62 8.83L130.62 31.23L126.72 31.23L126.72 8.83ZM111.55 8.83L115.46 8.83L115.46 31.23L111.55 31.23L111.55 8.83ZM115.14 19.49L127.01 19.49L127.01 20.70L115.14 20.70L115.14 19.49ZM111.55 28.90L111.65 28.90L111.65 31.23L109.09 31.23L109.09 30.91Q109.09 30.91 109.30 30.91Q109.50 30.91 109.50 30.91L109.50 30.91Q110.34 30.91 110.93 30.32Q111.52 29.73 111.55 28.90L111.55 28.90ZM111.65 8.83L111.65 11.17L111.55 11.17Q111.52 10.34 110.93 9.74Q110.34 9.15 109.50 9.15L109.50 9.15Q109.50 9.15 109.30 9.15Q109.09 9.15 109.09 9.15L109.09 9.15L109.09 8.83L111.65 8.83ZM115.36 31.23L115.36 28.90L115.46 28.90Q115.49 29.73 116.08 30.32Q116.67 30.91 117.50 30.91L117.50 30.91Q117.50 30.91 117.70 30.91Q117.89 30.91 117.92 30.91L117.92 30.91L117.92 31.23L115.36 31.23ZM115.46 11.17L115.36 11.17L115.36 8.83L117.92 8.83L117.92 9.15Q117.89 9.15 117.70 9.15Q117.50 9.15 117.50 9.15L117.50 9.15Q116.67 9.15 116.08 9.74Q115.49 10.34 115.46 11.17L115.46 11.17ZM126.72 28.90L126.82 28.90L126.82 31.23L124.26 31.23L124.26 30.91Q124.29 30.91 124.48 30.91Q124.67 30.91 124.67 30.91L124.67 30.91Q125.50 30.91 126.11 30.32Q126.72 29.73 126.72 28.90L126.72 28.90ZM126.82 8.83L126.82 11.17L126.72 11.17Q126.72 10.34 126.11 9.74Q125.50 9.15 124.67 9.15L124.67 9.15Q124.67 9.15 124.48 9.15Q124.29 9.15 124.26 9.15L124.26 9.15L124.26 8.83L126.82 8.83ZM130.53 31.23L130.53 28.90L130.62 28.90Q130.66 29.73 131.25 30.32Q131.84 30.91 132.67 30.91L132.67 30.91Q132.67 30.91 132.88 30.91Q133.09 30.91 133.09 30.91L133.09 30.91L133.09 31.23L130.53 31.23ZM130.62 11.17L130.53 11.17L130.53 8.83L133.09 8.83L133.09 9.15Q133.09 9.15 132.88 9.15Q132.67 9.15 132.67 9.15L132.67 9.15Q131.84 9.15 131.25 9.74Q130.66 10.34 130.62 11.17L130.62 11.17ZM149.79 13.38L151.30 8.26L161.41 31.04L156.67 31.04L149.79 13.38ZM142.30 28.90L144.42 28.90Q144.16 29.54 144.32 29.98Q144.48 30.43 144.86 30.67Q145.25 30.91 145.63 30.91L145.63 30.91L145.92 30.91L145.92 31.23L139.20 31.23L139.20 30.91Q139.20 30.91 139.34 30.91Q139.49 30.91 139.49 30.91L139.49 30.91Q140.22 30.91 141.01 30.45Q141.79 29.98 142.30 28.90L142.30 28.90ZM151.01 8.26L151.30 8.26L151.46 11.62L143.49 31.14L141.31 31.14L149.57 12.16Q149.63 12.03 149.84 11.54Q150.05 11.04 150.32 10.40Q150.59 9.76 150.78 9.17Q150.98 8.58 151.01 8.26L151.01 8.26ZM145.41 23.23L155.04 23.23L155.04 24.45L145.41 24.45L145.41 23.23ZM155.84 28.90L155.84 28.90L160.45 28.90Q160.96 29.98 161.74 30.45Q162.53 30.91 163.26 30.91L163.26 30.91Q163.26 30.91 163.39 30.91Q163.52 30.91 163.52 30.91L163.52 30.91L163.52 31.23L154.34 31.23L154.34 30.91L154.62 30.91Q155.23 30.91 155.71 30.38Q156.19 29.86 155.84 28.90ZM181.50 29.28L192.77 8.38L193.02 11.42L184 28.35Q184 28.35 183.71 28.91Q183.42 29.47 183.14 30.27Q182.85 31.07 182.82 31.81L182.82 31.81L182.50 31.81L181.50 29.28ZM171.04 28.90L171.74 28.90L171.74 31.23L168.19 31.23L168.19 30.91Q168.22 30.91 168.46 30.91Q168.70 30.91 168.70 30.91L168.70 30.91Q169.57 30.91 170.24 30.38Q170.91 29.86 171.04 28.90L171.04 28.90ZM172.77 29.41L172.99 29.41Q172.99 29.44 172.99 29.47Q172.99 29.50 172.99 29.57L172.99 29.57Q172.99 30.08 173.36 30.51Q173.73 30.94 174.24 30.94L174.24 30.94L174.72 30.94L174.72 31.23L172.77 31.23L172.77 29.41ZM170.75 31.23L173.60 8.38L173.92 8.38L174.88 11.17L172.80 31.23L170.75 31.23ZM173.15 14.62L173.92 8.38L183.97 26.50L182.50 31.81L173.15 14.62ZM192.77 8.38L193.06 8.38L196 31.23L191.74 31.23L190.08 14.98L192.77 8.38ZM195.01 31.23L195.01 28.90L195.71 28.90Q195.87 29.86 196.53 30.38Q197.18 30.91 198.05 30.91L198.05 30.91Q198.05 30.91 198.29 30.91Q198.53 30.91 198.56 30.91L198.56 30.91L198.56 31.23L195.01 31.23ZM191.55 29.41L191.55 29.41L191.78 29.41L191.78 31.23L189.82 31.23L189.82 30.94L190.30 30.94Q190.85 30.94 191.20 30.51Q191.55 30.08 191.55 29.57L191.55 29.57Q191.55 29.50 191.55 29.47Q191.55 29.44 191.55 29.41ZM211.49 8.83L211.49 8.83L215.42 8.83Q217.95 8.83 219.60 9.62Q221.25 10.40 222.08 11.78Q222.91 13.15 222.94 14.98L222.94 14.98Q222.98 16.58 222.38 17.86Q221.79 19.14 220.75 20Q219.71 20.86 218.42 21.26Q217.12 21.66 215.71 21.49Q214.30 21.31 212.99 20.51L212.99 20.51L212.99 20.19Q212.99 20.19 213.42 20.22Q213.86 20.26 214.56 20.14Q215.26 20.03 216.05 19.70Q216.83 19.36 217.50 18.61Q218.18 17.86 218.53 16.61L218.53 16.61Q218.66 16.19 218.70 15.68Q218.75 15.17 218.72 14.69L218.72 14.69Q218.69 12.58 217.60 11.31Q216.51 10.05 214.53 10.05L214.53 10.05L211.81 10.05Q211.81 10.05 211.73 9.74Q211.65 9.44 211.57 9.14Q211.49 8.83 211.49 8.83ZM208.00 8.83L211.90 8.83L211.90 31.23L208.00 31.23L208.00 8.83ZM208.00 28.90L208.10 28.90L208.10 31.23L205.54 31.23L205.54 30.91Q205.57 30.91 205.74 30.91Q205.92 30.91 205.95 30.91L205.95 30.91Q206.78 30.91 207.38 30.32Q207.97 29.73 208.00 28.90L208.00 28.90ZM208.10 8.83L208.10 11.17L208.00 11.17Q208.00 10.34 207.39 9.74Q206.78 9.15 205.95 9.15L205.95 9.15Q205.92 9.15 205.76 9.15Q205.60 9.15 205.57 9.15L205.57 9.15L205.54 8.83L208.10 8.83ZM211.81 31.23L211.81 28.90L211.90 28.90Q211.94 29.73 212.53 30.32Q213.12 30.91 213.95 30.91L213.95 30.91Q213.95 30.91 214.14 30.91Q214.34 30.91 214.37 30.91L214.37 30.91L214.37 31.23L211.81 31.23ZM238.30 8.38L238.30 8.38Q238.91 8.38 239.74 8.45Q240.58 8.51 241.42 8.62Q242.27 8.74 242.94 8.85Q243.62 8.96 243.87 9.09L243.87 9.09L243.62 13.15L243.30 13.15Q243.30 11.52 242.13 10.56Q240.96 9.60 239.10 9.60L239.10 9.60Q237.25 9.60 236.14 10.56Q235.04 11.52 235.01 12.90L235.01 12.90Q234.94 13.70 235.47 14.45Q236.00 15.20 236.90 15.84L236.90 15.84L243.07 20.42Q244.38 21.28 244.99 22.51Q245.60 23.74 245.54 25.28L245.54 25.28Q245.44 28.22 243.41 29.95Q241.38 31.68 237.89 31.68L237.89 31.68Q236.70 31.68 235.47 31.47Q234.24 31.26 233.22 30.83Q232.19 30.40 231.58 29.79L231.58 29.79Q231.39 29.15 231.42 28.24Q231.46 27.33 231.68 26.35Q231.90 25.38 232.22 24.70L232.22 24.70L232.51 24.70Q232.38 26.34 233.06 27.66Q233.73 28.99 235.02 29.74Q236.32 30.50 238.08 30.46L238.08 30.46Q240.06 30.40 241.26 29.34Q242.46 28.29 242.46 26.62L242.46 26.62Q242.46 25.66 241.95 24.88Q241.44 24.10 240.35 23.46L240.35 23.46L234.56 19.07Q233.09 18.11 232.46 16.75Q231.84 15.39 231.94 13.92L231.94 13.92Q232.03 12.38 232.80 11.12Q233.57 9.86 234.96 9.12Q236.35 8.38 238.30 8.38ZM240.54 8.70L243.90 8.70L243.87 9.38L240.54 9.38L240.54 8.70ZM271.62 8.83L275.52 8.83L275.52 31.23L271.62 31.23L271.62 8.83ZM256.45 8.83L260.35 8.83L260.35 31.23L256.45 31.23L256.45 8.83ZM260.03 19.49L271.90 19.49L271.90 20.70L260.03 20.70L260.03 19.49ZM256.45 28.90L256.54 28.90L256.54 31.23L253.98 31.23L253.98 30.91Q253.98 30.91 254.19 30.91Q254.40 30.91 254.40 30.91L254.40 30.91Q255.23 30.91 255.82 30.32Q256.42 29.73 256.45 28.90L256.45 28.90ZM256.54 8.83L256.54 11.17L256.45 11.17Q256.42 10.34 255.82 9.74Q255.23 9.15 254.40 9.15L254.40 9.15Q254.40 9.15 254.19 9.15Q253.98 9.15 253.98 9.15L253.98 9.15L253.98 8.83L256.54 8.83ZM260.26 31.23L260.26 28.90L260.35 28.90Q260.38 29.73 260.98 30.32Q261.57 30.91 262.40 30.91L262.40 30.91Q262.40 30.91 262.59 30.91Q262.78 30.91 262.82 30.91L262.82 30.91L262.82 31.23L260.26 31.23ZM260.35 11.17L260.26 11.17L260.26 8.83L262.82 8.83L262.82 9.15Q262.78 9.15 262.59 9.15Q262.40 9.15 262.40 9.15L262.40 9.15Q261.57 9.15 260.98 9.74Q260.38 10.34 260.35 11.17L260.35 11.17ZM271.62 28.90L271.71 28.90L271.71 31.23L269.15 31.23L269.15 30.91Q269.18 30.91 269.38 30.91Q269.57 30.91 269.57 30.91L269.57 30.91Q270.40 30.91 271.01 30.32Q271.62 29.73 271.62 28.90L271.62 28.90ZM271.71 8.83L271.71 11.17L271.62 11.17Q271.62 10.34 271.01 9.74Q270.40 9.15 269.57 9.15L269.57 9.15Q269.57 9.15 269.38 9.15Q269.18 9.15 269.15 9.15L269.15 9.15L269.15 8.83L271.71 8.83ZM275.42 31.23L275.42 28.90L275.52 28.90Q275.55 29.73 276.14 30.32Q276.74 30.91 277.57 30.91L277.57 30.91Q277.57 30.91 277.78 30.91Q277.98 30.91 277.98 30.91L277.98 30.91L277.98 31.23L275.42 31.23ZM275.52 11.17L275.42 11.17L275.42 8.83L277.98 8.83L277.98 9.15Q277.98 9.15 277.78 9.15Q277.57 9.15 277.57 9.15L277.57 9.15Q276.74 9.15 276.14 9.74Q275.55 10.34 275.52 11.17L275.52 11.17ZM288.93 8.83L292.83 8.83L292.83 31.23L288.93 31.23L288.93 8.83ZM288.93 28.90L289.02 28.90L289.02 31.23L286.46 31.23L286.46 30.91Q286.46 30.91 286.67 30.91Q286.88 30.91 286.88 30.91L286.88 30.91Q287.71 30.91 288.30 30.32Q288.90 29.73 288.93 28.90L288.93 28.90ZM289.02 8.83L289.02 11.17L288.93 11.17Q288.90 10.34 288.30 9.74Q287.71 9.15 286.88 9.15L286.88 9.15Q286.88 9.15 286.67 9.15Q286.46 9.15 286.46 9.15L286.46 9.15L286.46 8.83L289.02 8.83ZM292.74 31.23L292.74 28.90L292.83 28.90Q292.86 29.73 293.46 30.32Q294.05 30.91 294.88 30.91L294.88 30.91Q294.88 30.91 295.07 30.91Q295.26 30.91 295.30 30.91L295.30 30.91L295.30 31.23L292.74 31.23ZM292.83 11.17L292.74 11.17L292.74 8.83L295.30 8.83L295.30 9.15Q295.26 9.15 295.07 9.15Q294.88 9.15 294.88 9.15L294.88 9.15Q294.05 9.15 293.46 9.74Q292.86 10.34 292.83 11.17L292.83 11.17ZM309.76 8.83L309.76 8.83L314.02 8.83Q315.46 8.83 316.75 9.18Q318.05 9.54 319.04 10.27Q320.03 11.01 320.59 12.14Q321.15 13.28 321.15 14.85L321.15 14.85Q321.15 16.26 320.54 17.63Q319.94 19.01 318.75 19.92Q317.57 20.83 315.84 20.96L315.84 20.96Q316.70 21.25 317.49 22.03Q318.27 22.82 318.78 23.58L318.78 23.58Q318.82 23.62 319.18 24.18Q319.55 24.74 320.10 25.54Q320.64 26.34 321.23 27.14Q321.82 27.94 322.27 28.48L322.27 28.48Q322.98 29.31 323.57 29.84Q324.16 30.37 324.83 30.64Q325.50 30.91 326.37 30.91L326.37 30.91L326.37 31.23L323.71 31.23Q322.05 31.23 320.75 30.88Q319.46 30.53 318.50 29.82Q317.54 29.12 316.83 28.06L316.83 28.06Q316.64 27.78 316.29 27.18Q315.94 26.59 315.52 25.86Q315.10 25.12 314.70 24.43Q314.30 23.74 314.03 23.20Q313.76 22.66 313.66 22.43L313.66 22.43Q313.15 21.50 312.54 20.93Q311.94 20.35 311.23 20.29L311.23 20.29L311.23 19.97Q311.30 19.97 311.65 19.98Q312.00 20 312.45 19.97L312.45 19.97Q313.31 19.94 314.19 19.65Q315.07 19.36 315.78 18.58Q316.48 17.79 316.80 16.38L316.80 16.38Q316.86 16.10 316.93 15.65Q316.99 15.20 316.96 14.72L316.96 14.72Q316.86 12.48 315.81 11.33Q314.75 10.18 313.12 10.11L313.12 10.11Q312.51 10.08 311.84 10.10Q311.17 10.11 310.67 10.11Q310.18 10.11 310.08 10.11L310.08 10.11Q310.08 10.08 310.00 9.76Q309.92 9.44 309.84 9.14Q309.76 8.83 309.76 8.83ZM306.27 8.83L310.18 8.83L310.18 31.23L306.27 31.23L306.27 8.83ZM306.27 28.90L306.37 28.90L306.37 31.23L303.81 31.23L303.81 30.91Q303.84 30.91 304.02 30.91Q304.19 30.91 304.22 30.91L304.22 30.91Q305.06 30.91 305.65 30.32Q306.24 29.73 306.27 28.90L306.27 28.90ZM306.37 8.83L306.37 11.17L306.27 11.17Q306.24 10.34 305.65 9.74Q305.06 9.15 304.22 9.15L304.22 9.15Q304.19 9.15 304.02 9.15Q303.84 9.15 303.81 9.15L303.81 9.15L303.81 8.83L306.37 8.83ZM310.08 31.23L310.08 28.90L310.18 28.90Q310.18 29.73 310.78 30.32Q311.39 30.91 312.22 30.91L312.22 30.91Q312.26 30.91 312.43 30.91Q312.61 30.91 312.61 30.91L312.61 30.91L312.61 31.23L310.08 31.23ZM334.24 8.83L338.14 8.83L338.14 31.23L334.24 31.23L334.24 8.83ZM338.05 29.98L346.62 29.98L347.17 31.23L338.05 31.23L338.05 29.98ZM338.05 19.58L345.41 19.58L345.41 20.80L338.05 20.80L338.05 19.58ZM338.05 8.83L346.91 8.83L346.91 10.08L338.05 10.08L338.05 8.83ZM348.54 25.15L348.86 25.15L347.26 31.23L341.28 31.23L342.43 29.98Q344.06 29.98 345.25 29.39Q346.43 28.80 347.23 27.70Q348.03 26.59 348.54 25.15L348.54 25.15ZM342.75 20.74L345.41 20.74L345.41 23.49L345.09 23.49L345.09 23.14Q345.09 22.14 344.42 21.47Q343.74 20.80 342.75 20.80L342.75 20.80L342.75 20.74ZM345.09 16.90L345.41 16.90L345.41 19.65L342.75 19.65L342.75 19.58Q343.74 19.55 344.42 18.88Q345.09 18.21 345.09 17.22L345.09 17.22L345.09 16.90ZM343.78 9.98L346.91 9.98L346.91 13.31L346.59 13.31L346.59 12.86Q346.59 11.65 345.82 10.86Q345.06 10.08 343.78 10.05L343.78 10.05L343.78 9.98ZM346.91 8.26L346.91 8.26L346.91 9.18L343.01 8.83Q343.71 8.83 344.50 8.74Q345.28 8.64 345.95 8.51Q346.62 8.38 346.91 8.26ZM334.24 28.90L334.34 28.90L334.34 31.23L331.78 31.23L331.78 30.91Q331.78 30.91 331.98 30.91Q332.19 30.91 332.19 30.91L332.19 30.91Q333.02 30.91 333.62 30.32Q334.21 29.73 334.24 28.90L334.24 28.90ZM334.34 8.83L334.34 11.17L334.24 11.17Q334.21 10.34 333.62 9.74Q333.02 9.15 332.19 9.15L332.19 9.15Q332.19 9.15 331.98 9.15Q331.78 9.15 331.78 9.15L331.78 9.15L331.78 8.83L334.34 8.83ZM372.29 8.83L376.19 8.83L376.19 22.91Q376.19 25.18 376.98 26.88Q377.76 28.58 379.20 29.50Q380.64 30.43 382.56 30.43L382.56 30.43Q384.61 30.43 386.08 29.55Q387.55 28.67 388.37 27.09Q389.18 25.50 389.18 23.33L389.18 23.33L389.18 8.83L391.20 8.83L391.20 23.20Q391.20 25.76 390.11 27.66Q389.02 29.57 386.99 30.62Q384.96 31.68 382.18 31.68L382.18 31.68Q379.04 31.68 376.82 30.64Q374.59 29.60 373.44 27.70Q372.29 25.79 372.29 23.23L372.29 23.23L372.29 8.83ZM370.08 8.83L372.38 8.83L372.38 10.75L372.29 10.75Q372.29 10.05 371.79 9.60Q371.30 9.15 370.59 9.15L370.59 9.15Q370.59 9.15 370.34 9.15Q370.08 9.15 370.08 9.15L370.08 9.15L370.08 8.83ZM376.13 8.83L378.40 8.83L378.40 9.15Q378.40 9.15 378.14 9.15Q377.89 9.15 377.89 9.15L377.89 9.15Q377.18 9.15 376.69 9.60Q376.19 10.05 376.19 10.75L376.19 10.75L376.13 10.75L376.13 8.83ZM386.98 8.83L389.28 8.83L389.28 10.75L389.18 10.75Q389.18 10.05 388.69 9.60Q388.19 9.15 387.49 9.15L387.49 9.15Q387.49 9.15 387.23 9.15Q386.98 9.15 386.98 9.15L386.98 9.15L386.98 8.83ZM391.14 8.83L393.41 8.83L393.41 9.15Q393.41 9.15 393.15 9.15Q392.90 9.15 392.90 9.15L392.90 9.15Q392.19 9.15 391.70 9.60Q391.20 10.05 391.20 10.75L391.20 10.75L391.14 10.75L391.14 8.83ZM403.62 12.13L403.26 8.35L423.07 27.94L423.42 31.68L403.62 12.13ZM403.30 28.96L403.39 28.96L403.39 31.23L400.74 31.23L400.74 30.91Q400.74 30.91 401.02 30.91Q401.31 30.91 401.34 30.91L401.34 30.91Q402.14 30.91 402.72 30.34Q403.30 29.76 403.30 28.96L403.30 28.96ZM406.75 28.96L406.85 28.96Q406.85 29.76 407.42 30.34Q408.00 30.91 408.80 30.91L408.80 30.91Q408.83 30.91 409.12 30.91Q409.41 30.91 409.41 30.91L409.41 30.91L409.41 31.23L406.75 31.23L406.75 28.96ZM402.94 8.35L403.26 8.35L406.82 12.22L406.85 31.23L403.30 31.23L403.30 12.35Q403.30 10.62 403.12 9.49Q402.94 8.35 402.94 8.35L402.94 8.35ZM419.87 8.83L423.36 8.83L423.36 27.58Q423.36 28.74 423.46 29.66Q423.55 30.59 423.63 31.14Q423.71 31.68 423.71 31.68L423.71 31.68L423.42 31.68L419.87 27.68L419.87 8.83ZM423.26 8.83L425.92 8.83L425.92 9.15Q425.92 9.15 425.63 9.15Q425.34 9.15 425.34 9.15L425.34 9.15Q424.54 9.15 423.97 9.71Q423.39 10.27 423.36 11.10L423.36 11.10L423.26 11.10L423.26 8.83ZM417.28 9.15L417.28 8.83L419.94 8.83L419.94 11.10L419.87 11.10Q419.84 10.27 419.28 9.71Q418.72 9.15 417.89 9.15L417.89 9.15Q417.89 9.15 417.60 9.15Q417.31 9.15 417.28 9.15L417.28 9.15ZM436.03 8.83L439.94 8.83L439.94 31.23L436.03 31.23L436.03 8.83ZM436.03 28.90L436.13 28.90L436.13 31.23L433.57 31.23L433.57 30.91Q433.57 30.91 433.78 30.91Q433.98 30.91 433.98 30.91L433.98 30.91Q434.82 30.91 435.41 30.32Q436.00 29.73 436.03 28.90L436.03 28.90ZM436.13 8.83L436.13 11.17L436.03 11.17Q436.00 10.34 435.41 9.74Q434.82 9.15 433.98 9.15L433.98 9.15Q433.98 9.15 433.78 9.15Q433.57 9.15 433.57 9.15L433.57 9.15L433.57 8.83L436.13 8.83ZM439.84 31.23L439.84 28.90L439.94 28.90Q439.97 29.73 440.56 30.32Q441.15 30.91 441.98 30.91L441.98 30.91Q441.98 30.91 442.18 30.91Q442.37 30.91 442.40 30.91L442.40 30.91L442.40 31.23L439.84 31.23ZM439.94 11.17L439.84 11.17L439.84 8.83L442.40 8.83L442.40 9.15Q442.37 9.15 442.18 9.15Q441.98 9.15 441.98 9.15L441.98 9.15Q441.15 9.15 440.56 9.74Q439.97 10.34 439.94 11.17L439.94 11.17ZM462.69 8.38L462.69 8.38Q466.37 8.38 469.14 9.81Q471.90 11.23 473.41 13.86Q474.91 16.48 474.91 20.03L474.91 20.03Q474.91 23.58 473.41 26.21Q471.90 28.83 469.14 30.26Q466.37 31.68 462.69 31.68L462.69 31.68Q458.98 31.68 456.22 30.26Q453.47 28.83 451.97 26.21Q450.46 23.58 450.46 20.03L450.46 20.03Q450.46 16.48 451.97 13.86Q453.47 11.23 456.22 9.81Q458.98 8.38 462.69 8.38ZM462.69 30.46L462.69 30.46Q465.09 30.46 466.86 29.18Q468.64 27.90 469.62 25.57Q470.59 23.23 470.59 20.03L470.59 20.03Q470.59 16.83 469.62 14.50Q468.64 12.16 466.86 10.88Q465.09 9.60 462.69 9.60L462.69 9.60Q460.29 9.60 458.51 10.88Q456.74 12.16 455.76 14.50Q454.78 16.83 454.78 20.03L454.78 20.03Q454.78 23.23 455.76 25.57Q456.74 27.90 458.51 29.18Q460.29 30.46 462.69 30.46ZM485.15 12.13L484.80 8.35L504.61 27.94L504.96 31.68L485.15 12.13ZM484.83 28.96L484.93 28.96L484.93 31.23L482.27 31.23L482.27 30.91Q482.27 30.91 482.56 30.91Q482.85 30.91 482.88 30.91L482.88 30.91Q483.68 30.91 484.26 30.34Q484.83 29.76 484.83 28.96L484.83 28.96ZM488.29 28.96L488.38 28.96Q488.38 29.76 488.96 30.34Q489.54 30.91 490.34 30.91L490.34 30.91Q490.37 30.91 490.66 30.91Q490.94 30.91 490.94 30.91L490.94 30.91L490.94 31.23L488.29 31.23L488.29 28.96ZM484.48 8.35L484.80 8.35L488.35 12.22L488.38 31.23L484.83 31.23L484.83 12.35Q484.83 10.62 484.66 9.49Q484.48 8.35 484.48 8.35L484.48 8.35ZM501.41 8.83L504.90 8.83L504.90 27.58Q504.90 28.74 504.99 29.66Q505.09 30.59 505.17 31.14Q505.25 31.68 505.25 31.68L505.25 31.68L504.96 31.68L501.41 27.68L501.41 8.83ZM504.80 8.83L507.46 8.83L507.46 9.15Q507.46 9.15 507.17 9.15Q506.88 9.15 506.88 9.15L506.88 9.15Q506.08 9.15 505.50 9.71Q504.93 10.27 504.90 11.10L504.90 11.10L504.80 11.10L504.80 8.83ZM498.82 9.15L498.82 8.83L501.47 8.83L501.47 11.10L501.41 11.10Q501.38 10.27 500.82 9.71Q500.26 9.15 499.42 9.15L499.42 9.15Q499.42 9.15 499.14 9.15Q498.85 9.15 498.82 9.15L498.82 9.15ZM537.34 13.38L538.85 8.26L548.96 31.04L544.22 31.04L537.34 13.38ZM529.86 28.90L531.97 28.90Q531.71 29.54 531.87 29.98Q532.03 30.43 532.42 30.67Q532.80 30.91 533.18 30.91L533.18 30.91L533.47 30.91L533.47 31.23L526.75 31.23L526.75 30.91Q526.75 30.91 526.90 30.91Q527.04 30.91 527.04 30.91L527.04 30.91Q527.78 30.91 528.56 30.45Q529.34 29.98 529.86 28.90L529.86 28.90ZM538.56 8.26L538.85 8.26L539.01 11.62L531.04 31.14L528.86 31.14L537.12 12.16Q537.18 12.03 537.39 11.54Q537.60 11.04 537.87 10.40Q538.14 9.76 538.34 9.17Q538.53 8.58 538.56 8.26L538.56 8.26ZM532.96 23.23L542.59 23.23L542.59 24.45L532.96 24.45L532.96 23.23ZM543.39 28.90L543.39 28.90L548 28.90Q548.51 29.98 549.30 30.45Q550.08 30.91 550.82 30.91L550.82 30.91Q550.82 30.91 550.94 30.91Q551.07 30.91 551.07 30.91L551.07 30.91L551.07 31.23L541.89 31.23L541.89 30.91L542.18 30.91Q542.78 30.91 543.26 30.38Q543.74 29.86 543.39 28.90ZM577.44 21.89L577.70 21.89L577.76 27.23Q577.02 28.48 575.81 29.49Q574.59 30.50 572.85 31.09Q571.10 31.68 568.77 31.68L568.77 31.68Q565.06 31.65 562.24 30.24Q559.42 28.83 557.87 26.22Q556.32 23.62 556.32 20L556.32 20Q556.32 16.45 557.86 13.84Q559.39 11.23 562.21 9.81Q565.02 8.38 568.90 8.38L568.90 8.38Q571.39 8.38 573.38 8.94Q575.36 9.50 576.74 10.27L576.74 10.27L576.99 15.42L576.70 15.42Q575.90 12.38 573.87 10.99Q571.84 9.60 569.12 9.60L569.12 9.60Q566.50 9.60 564.59 10.86Q562.69 12.13 561.65 14.45Q560.61 16.77 560.61 19.94L560.61 19.94Q560.61 23.10 561.62 25.46Q562.62 27.81 564.46 29.10Q566.30 30.40 568.77 30.46L568.77 30.46Q571.17 30.46 572.94 29.65Q574.72 28.83 575.86 26.94Q576.99 25.06 577.44 21.89L577.44 21.89ZM607.62 21.89L607.87 21.89L607.94 27.23Q607.20 28.48 605.98 29.49Q604.77 30.50 603.02 31.09Q601.28 31.68 598.94 31.68L598.94 31.68Q595.23 31.65 592.42 30.24Q589.60 28.83 588.05 26.22Q586.50 23.62 586.50 20L586.50 20Q586.50 16.45 588.03 13.84Q589.57 11.23 592.38 9.81Q595.20 8.38 599.07 8.38L599.07 8.38Q601.57 8.38 603.55 8.94Q605.54 9.50 606.91 10.27L606.91 10.27L607.17 15.42L606.88 15.42Q606.08 12.38 604.05 10.99Q602.02 9.60 599.30 9.60L599.30 9.60Q596.67 9.60 594.77 10.86Q592.86 12.13 591.82 14.45Q590.78 16.77 590.78 19.94L590.78 19.94Q590.78 23.10 591.79 25.46Q592.80 27.81 594.64 29.10Q596.48 30.40 598.94 30.46L598.94 30.46Q601.34 30.46 603.12 29.65Q604.90 28.83 606.03 26.94Q607.17 25.06 607.62 21.89L607.62 21.89ZM629.09 8.38L629.09 8.38Q632.77 8.38 635.54 9.81Q638.30 11.23 639.81 13.86Q641.31 16.48 641.31 20.03L641.31 20.03Q641.31 23.58 639.81 26.21Q638.30 28.83 635.54 30.26Q632.77 31.68 629.09 31.68L629.09 31.68Q625.38 31.68 622.62 30.26Q619.87 28.83 618.37 26.21Q616.86 23.58 616.86 20.03L616.86 20.03Q616.86 16.48 618.37 13.86Q619.87 11.23 622.62 9.81Q625.38 8.38 629.09 8.38ZM629.09 30.46L629.09 30.46Q631.49 30.46 633.26 29.18Q635.04 27.90 636.02 25.57Q636.99 23.23 636.99 20.03L636.99 20.03Q636.99 16.83 636.02 14.50Q635.04 12.16 633.26 10.88Q631.49 9.60 629.09 9.60L629.09 9.60Q626.69 9.60 624.91 10.88Q623.14 12.16 622.16 14.50Q621.18 16.83 621.18 20.03L621.18 20.03Q621.18 23.23 622.16 25.57Q623.14 27.90 624.91 29.18Q626.69 30.46 629.09 30.46ZM651.26 8.83L655.17 8.83L655.17 22.91Q655.17 25.18 655.95 26.88Q656.74 28.58 658.18 29.50Q659.62 30.43 661.54 30.43L661.54 30.43Q663.58 30.43 665.06 29.55Q666.53 28.67 667.34 27.09Q668.16 25.50 668.16 23.33L668.16 23.33L668.16 8.83L670.18 8.83L670.18 23.20Q670.18 25.76 669.09 27.66Q668.00 29.57 665.97 30.62Q663.94 31.68 661.15 31.68L661.15 31.68Q658.02 31.68 655.79 30.64Q653.57 29.60 652.42 27.70Q651.26 25.79 651.26 23.23L651.26 23.23L651.26 8.83ZM649.06 8.83L651.36 8.83L651.36 10.75L651.26 10.75Q651.26 10.05 650.77 9.60Q650.27 9.15 649.57 9.15L649.57 9.15Q649.57 9.15 649.31 9.15Q649.06 9.15 649.06 9.15L649.06 9.15L649.06 8.83ZM655.10 8.83L657.38 8.83L657.38 9.15Q657.38 9.15 657.12 9.15Q656.86 9.15 656.86 9.15L656.86 9.15Q656.16 9.15 655.66 9.60Q655.17 10.05 655.17 10.75L655.17 10.75L655.10 10.75L655.10 8.83ZM665.95 8.83L668.26 8.83L668.26 10.75L668.16 10.75Q668.16 10.05 667.66 9.60Q667.17 9.15 666.46 9.15L666.46 9.15Q666.46 9.15 666.21 9.15Q665.95 9.15 665.95 9.15L665.95 9.15L665.95 8.83ZM670.11 8.83L672.38 8.83L672.38 9.15Q672.38 9.15 672.13 9.15Q671.87 9.15 671.87 9.15L671.87 9.15Q671.17 9.15 670.67 9.60Q670.18 10.05 670.18 10.75L670.18 10.75L670.11 10.75L670.11 8.83ZM682.59 12.13L682.24 8.35L702.05 27.94L702.40 31.68L682.59 12.13ZM682.27 28.96L682.37 28.96L682.37 31.23L679.71 31.23L679.71 30.91Q679.71 30.91 680.00 30.91Q680.29 30.91 680.32 30.91L680.32 30.91Q681.12 30.91 681.70 30.34Q682.27 29.76 682.27 28.96L682.27 28.96ZM685.73 28.96L685.82 28.96Q685.82 29.76 686.40 30.34Q686.98 30.91 687.78 30.91L687.78 30.91Q687.81 30.91 688.10 30.91Q688.38 30.91 688.38 30.91L688.38 30.91L688.38 31.23L685.73 31.23L685.73 28.96ZM681.92 8.35L682.24 8.35L685.79 12.22L685.82 31.23L682.27 31.23L682.27 12.35Q682.27 10.62 682.10 9.49Q681.92 8.35 681.92 8.35L681.92 8.35ZM698.85 8.83L702.34 8.83L702.34 27.58Q702.34 28.74 702.43 29.66Q702.53 30.59 702.61 31.14Q702.69 31.68 702.69 31.68L702.69 31.68L702.40 31.68L698.85 27.68L698.85 8.83ZM702.24 8.83L704.90 8.83L704.90 9.15Q704.90 9.15 704.61 9.15Q704.32 9.15 704.32 9.15L704.32 9.15Q703.52 9.15 702.94 9.71Q702.37 10.27 702.34 11.10L702.34 11.10L702.24 11.10L702.24 8.83ZM696.26 9.15L696.26 8.83L698.91 8.83L698.91 11.10L698.85 11.10Q698.82 10.27 698.26 9.71Q697.70 9.15 696.86 9.15L696.86 9.15Q696.86 9.15 696.58 9.15Q696.29 9.15 696.26 9.15L696.26 9.15ZM719.94 8.93L723.84 8.93L723.84 31.23L719.94 31.23L719.94 8.93ZM711.97 8.80L731.78 8.80L731.78 10.02L711.97 10.02L711.97 8.80ZM728.67 9.92L731.78 9.92L731.78 13.28L731.46 13.25L731.46 12.83Q731.46 11.58 730.69 10.82Q729.92 10.05 728.67 10.02L728.67 10.02L728.67 9.92ZM731.78 8.22L731.78 8.22L731.78 9.15L727.87 8.80Q728.58 8.80 729.36 8.70Q730.14 8.61 730.82 8.48Q731.49 8.35 731.78 8.22ZM719.94 28.90L720.03 28.90L720.03 31.23L717.47 31.23L717.47 30.91Q717.47 30.91 717.68 30.91Q717.89 30.91 717.89 30.91L717.89 30.91Q718.72 30.91 719.31 30.32Q719.90 29.73 719.94 28.90L719.94 28.90ZM723.74 31.23L723.74 28.90L723.84 28.90Q723.87 29.73 724.46 30.32Q725.06 30.91 725.89 30.91L725.89 30.91Q725.89 30.91 726.10 30.91Q726.30 30.91 726.30 30.91L726.30 30.91L726.30 31.23L723.74 31.23ZM711.97 9.92L715.07 9.92L715.07 10.02Q713.82 10.05 713.06 10.82Q712.29 11.58 712.29 12.83L712.29 12.83L712.29 13.25L711.97 13.28L711.97 9.92ZM711.97 9.15L711.97 8.22Q712.29 8.35 712.94 8.48Q713.60 8.61 714.40 8.70Q715.20 8.80 715.87 8.80L715.87 8.80L711.97 9.15ZM744.96 13.38L746.46 8.26L756.58 31.04L751.84 31.04L744.96 13.38ZM737.47 28.90L739.58 28.90Q739.33 29.54 739.49 29.98Q739.65 30.43 740.03 30.67Q740.42 30.91 740.80 30.91L740.80 30.91L741.09 30.91L741.09 31.23L734.37 31.23L734.37 30.91Q734.37 30.91 734.51 30.91Q734.66 30.91 734.66 30.91L734.66 30.91Q735.39 30.91 736.18 30.45Q736.96 29.98 737.47 28.90L737.47 28.90ZM746.18 8.26L746.46 8.26L746.62 11.62L738.66 31.14L736.48 31.14L744.74 12.16Q744.80 12.03 745.01 11.54Q745.22 11.04 745.49 10.40Q745.76 9.76 745.95 9.17Q746.14 8.58 746.18 8.26L746.18 8.26ZM740.58 23.23L750.21 23.23L750.21 24.45L740.58 24.45L740.58 23.23ZM751.01 28.90L751.01 28.90L755.62 28.90Q756.13 29.98 756.91 30.45Q757.70 30.91 758.43 30.91L758.43 30.91Q758.43 30.91 758.56 30.91Q758.69 30.91 758.69 30.91L758.69 30.91L758.69 31.23L749.50 31.23L749.50 30.91L749.79 30.91Q750.40 30.91 750.88 30.38Q751.36 29.86 751.01 28.90ZM768.42 8.83L768.42 8.83L773.22 8.83Q775.52 8.83 777.26 9.42Q779.01 10.02 779.98 11.22Q780.96 12.42 780.96 14.27L780.96 14.27Q780.96 15.68 780.40 16.70Q779.84 17.73 778.99 18.30Q778.14 18.88 777.15 19.04L777.15 19.04Q778.82 19.23 780.08 20.03Q781.34 20.83 782.06 22.11Q782.78 23.39 782.78 25.06L782.78 25.06Q782.78 27.01 781.74 28.40Q780.70 29.79 778.78 30.51Q776.86 31.23 774.27 31.23L774.27 31.23L771.01 31.23Q771.01 31.23 771.02 30.90Q771.04 30.56 771.04 30.22Q771.04 29.89 771.04 29.89L771.04 29.89L773.31 29.89Q774.82 29.89 775.94 29.33Q777.06 28.77 777.68 27.62Q778.30 26.46 778.30 24.74L778.30 24.74Q778.30 23.20 777.79 22.16Q777.28 21.12 776.43 20.51Q775.58 19.90 774.53 19.65Q773.47 19.39 772.38 19.39L772.38 19.39L772.38 19.10Q773.12 19.10 773.89 18.90Q774.66 18.69 775.30 18.19Q775.94 17.70 776.34 16.82Q776.74 15.94 776.74 14.59L776.74 14.59Q776.74 13.06 776.22 12.05Q775.71 11.04 774.75 10.56Q773.79 10.08 772.45 10.08L772.45 10.08L768.74 10.08Q768.74 10.05 768.66 9.76Q768.58 9.47 768.50 9.15Q768.42 8.83 768.42 8.83ZM767.39 8.83L771.30 8.83L771.30 31.23L767.39 31.23L767.39 8.83ZM767.39 28.90L767.49 28.90L767.49 31.23L764.93 31.23L764.93 30.91Q764.99 30.91 765.15 30.91Q765.31 30.91 765.34 30.91L765.34 30.91Q766.18 30.91 766.77 30.32Q767.36 29.73 767.39 28.90L767.39 28.90ZM767.49 8.83L767.49 11.17L767.39 11.17Q767.36 10.34 766.77 9.74Q766.18 9.15 765.34 9.15L765.34 9.15Q765.31 9.15 765.15 9.15Q764.99 9.15 764.93 9.15L764.93 9.15L764.93 8.83L767.49 8.83ZM793.28 8.83L797.18 8.83L797.18 31.23L793.28 31.23L793.28 8.83ZM793.28 28.90L793.38 28.90L793.38 31.23L790.82 31.23L790.82 30.91Q790.82 30.91 791.02 30.91Q791.23 30.91 791.23 30.91L791.23 30.91Q792.06 30.91 792.66 30.32Q793.25 29.73 793.28 28.90L793.28 28.90ZM793.38 8.83L793.38 11.17L793.28 11.17Q793.25 10.34 792.66 9.74Q792.06 9.15 791.23 9.15L791.23 9.15Q791.23 9.15 791.02 9.15Q790.82 9.15 790.82 9.15L790.82 9.15L790.82 8.83L793.38 8.83ZM797.09 31.23L797.09 28.90L797.18 28.90Q797.22 29.73 797.81 30.32Q798.40 30.91 799.23 30.91L799.23 30.91Q799.23 30.91 799.42 30.91Q799.62 30.91 799.65 30.91L799.65 30.91L799.65 31.23L797.09 31.23ZM797.18 11.17L797.09 11.17L797.09 8.83L799.65 8.83L799.65 9.15Q799.62 9.15 799.42 9.15Q799.23 9.15 799.23 9.15L799.23 9.15Q798.40 9.15 797.81 9.74Q797.22 10.34 797.18 11.17L797.18 11.17ZM810.56 8.83L814.46 8.83L814.46 31.23L810.56 31.23L810.56 8.83ZM814.37 29.98L822.94 29.98L823.49 31.23L814.37 31.23L814.37 29.98ZM824.86 25.15L825.18 25.15L823.58 31.23L817.60 31.23L818.75 29.98Q820.38 29.98 821.57 29.39Q822.75 28.80 823.55 27.70Q824.35 26.59 824.86 25.15L824.86 25.15ZM810.56 28.90L810.66 28.90L810.66 31.23L808.10 31.23L808.10 30.91Q808.10 30.91 808.30 30.91Q808.51 30.91 808.51 30.91L808.51 30.91Q809.34 30.91 809.94 30.32Q810.53 29.73 810.56 28.90L810.56 28.90ZM810.66 8.83L810.66 11.17L810.56 11.17Q810.53 10.34 809.94 9.74Q809.34 9.15 808.51 9.15L808.51 9.15Q808.51 9.15 808.30 9.15Q808.10 9.15 808.10 9.15L808.10 9.15L808.10 8.83L810.66 8.83ZM814.46 11.17L814.37 11.17L814.37 8.83L816.93 8.83L816.93 9.15Q816.90 9.15 816.70 9.15Q816.51 9.15 816.51 9.15L816.51 9.15Q815.68 9.15 815.09 9.74Q814.50 10.34 814.46 11.17L814.46 11.17ZM834.85 8.83L838.75 8.83L838.75 31.23L834.85 31.23L834.85 8.83ZM834.85 28.90L834.94 28.90L834.94 31.23L832.38 31.23L832.38 30.91Q832.38 30.91 832.59 30.91Q832.80 30.91 832.80 30.91L832.80 30.91Q833.63 30.91 834.22 30.32Q834.82 29.73 834.85 28.90L834.85 28.90ZM834.94 8.83L834.94 11.17L834.85 11.17Q834.82 10.34 834.22 9.74Q833.63 9.15 832.80 9.15L832.80 9.15Q832.80 9.15 832.59 9.15Q832.38 9.15 832.38 9.15L832.38 9.15L832.38 8.83L834.94 8.83ZM838.66 31.23L838.66 28.90L838.75 28.90Q838.78 29.73 839.38 30.32Q839.97 30.91 840.80 30.91L840.80 30.91Q840.80 30.91 840.99 30.91Q841.18 30.91 841.22 30.91L841.22 30.91L841.22 31.23L838.66 31.23ZM838.75 11.17L838.66 11.17L838.66 8.83L841.22 8.83L841.22 9.15Q841.18 9.15 840.99 9.15Q840.80 9.15 840.80 9.15L840.80 9.15Q839.97 9.15 839.38 9.74Q838.78 10.34 838.75 11.17L838.75 11.17ZM856.61 8.93L860.51 8.93L860.51 31.23L856.61 31.23L856.61 8.93ZM848.64 8.80L868.45 8.80L868.45 10.02L848.64 10.02L848.64 8.80ZM865.34 9.92L868.45 9.92L868.45 13.28L868.13 13.25L868.13 12.83Q868.13 11.58 867.36 10.82Q866.59 10.05 865.34 10.02L865.34 10.02L865.34 9.92ZM868.45 8.22L868.45 8.22L868.45 9.15L864.54 8.80Q865.25 8.80 866.03 8.70Q866.82 8.61 867.49 8.48Q868.16 8.35 868.45 8.22ZM856.61 28.90L856.70 28.90L856.70 31.23L854.14 31.23L854.14 30.91Q854.14 30.91 854.35 30.91Q854.56 30.91 854.56 30.91L854.56 30.91Q855.39 30.91 855.98 30.32Q856.58 29.73 856.61 28.90L856.61 28.90ZM860.42 31.23L860.42 28.90L860.51 28.90Q860.54 29.73 861.14 30.32Q861.73 30.91 862.56 30.91L862.56 30.91Q862.56 30.91 862.77 30.91Q862.98 30.91 862.98 30.91L862.98 30.91L862.98 31.23L860.42 31.23ZM848.64 9.92L851.74 9.92L851.74 10.02Q850.50 10.05 849.73 10.82Q848.96 11.58 848.96 12.83L848.96 12.83L848.96 13.25L848.64 13.28L848.64 9.92ZM848.64 9.15L848.64 8.22Q848.96 8.35 849.62 8.48Q850.27 8.61 851.07 8.70Q851.87 8.80 852.54 8.80L852.54 8.80L848.64 9.15ZM876.58 8.86L881.15 8.86L887.62 20.70L884.13 21.38L876.58 8.86ZM883.97 20.93L887.87 20.93L887.87 31.23L883.97 31.23L883.97 20.93ZM886.11 21.25L893.22 8.86L895.52 8.86L887.58 21.57L886.11 21.25ZM894.18 11.04L891.90 11.14Q892.16 10.69 892.03 10.22Q891.90 9.76 891.57 9.46Q891.23 9.15 890.78 9.15L890.78 9.15Q890.78 9.15 890.59 9.15Q890.40 9.15 890.40 9.15L890.40 9.15L890.40 8.83L897.86 8.83L897.86 9.15L897.41 9.15Q896.42 9.15 895.54 9.73Q894.66 10.30 894.18 11.04L894.18 11.04ZM882.40 11.14L882.40 11.14L877.89 11.04Q877.44 10.30 876.58 9.73Q875.71 9.15 874.69 9.15L874.69 9.15L874.24 9.15L874.24 8.83L883.94 8.83L883.94 9.15Q883.94 9.15 883.73 9.15Q883.52 9.15 883.52 9.15L883.52 9.15Q882.82 9.15 882.45 9.81Q882.08 10.46 882.40 11.14ZM883.97 28.90L884.06 28.90L884.06 31.23L881.50 31.23L881.50 30.91Q881.50 30.91 881.70 30.91Q881.89 30.91 881.92 30.91L881.92 30.91Q882.75 30.91 883.34 30.32Q883.94 29.73 883.97 28.90L883.97 28.90ZM887.78 31.23L887.78 28.90L887.87 28.90Q887.87 29.73 888.48 30.32Q889.09 30.91 889.92 30.91L889.92 30.91Q889.92 30.91 890.11 30.91Q890.30 30.91 890.30 30.91L890.30 30.91L890.30 31.23L887.78 31.23ZM925.82 13.38L927.33 8.26L937.44 31.04L932.70 31.04L925.82 13.38ZM918.34 28.90L920.45 28.90Q920.19 29.54 920.35 29.98Q920.51 30.43 920.90 30.67Q921.28 30.91 921.66 30.91L921.66 30.91L921.95 30.91L921.95 31.23L915.23 31.23L915.23 30.91Q915.23 30.91 915.38 30.91Q915.52 30.91 915.52 30.91L915.52 30.91Q916.26 30.91 917.04 30.45Q917.82 29.98 918.34 28.90L918.34 28.90ZM927.04 8.26L927.33 8.26L927.49 11.62L919.52 31.14L917.34 31.14L925.60 12.16Q925.66 12.03 925.87 11.54Q926.08 11.04 926.35 10.40Q926.62 9.76 926.82 9.17Q927.01 8.58 927.04 8.26L927.04 8.26ZM921.44 23.23L931.07 23.23L931.07 24.45L921.44 24.45L921.44 23.23ZM931.87 28.90L931.87 28.90L936.48 28.90Q936.99 29.98 937.78 30.45Q938.56 30.91 939.30 30.91L939.30 30.91Q939.30 30.91 939.42 30.91Q939.55 30.91 939.55 30.91L939.55 30.91L939.55 31.23L930.37 31.23L930.37 30.91L930.66 30.91Q931.26 30.91 931.74 30.38Q932.22 29.86 931.87 28.90ZM949.44 8.83L957.15 8.83Q960.80 8.83 963.50 10.19Q966.21 11.55 967.68 14.08Q969.15 16.61 969.15 20.03L969.15 20.03Q969.15 23.46 967.68 25.97Q966.21 28.48 963.50 29.86Q960.80 31.23 957.15 31.23L957.15 31.23L949.79 31.23L949.76 30.02Q950.37 30.02 951.28 30.02Q952.19 30.02 953.17 30.02Q954.14 30.02 954.99 30.02Q955.84 30.02 956.37 30.02Q956.90 30.02 956.90 30.02L956.90 30.02Q959.36 30.02 961.14 28.78Q962.91 27.55 963.90 25.31Q964.90 23.07 964.90 20.03L964.90 20.03Q964.90 16.99 963.90 14.75Q962.91 12.51 961.12 11.28Q959.33 10.05 956.90 10.05L956.90 10.05Q956.90 10.05 956.34 10.05Q955.78 10.05 954.90 10.05Q954.02 10.05 952.99 10.05Q951.97 10.05 951.02 10.05Q950.08 10.05 949.44 10.05L949.44 10.05L949.44 8.83ZM948.26 8.83L952.16 8.83L952.16 31.23L948.26 31.23L948.26 8.83ZM948.26 28.90L948.35 28.90L948.35 31.23L945.79 31.23L945.79 30.91Q945.79 30.91 946.00 30.91Q946.21 30.91 946.21 30.91L946.21 30.91Q947.04 30.91 947.63 30.32Q948.22 29.73 948.26 28.90L948.26 28.90ZM948.35 8.83L948.35 11.17L948.26 11.17Q948.26 10.34 947.65 9.74Q947.04 9.15 946.21 9.15L946.21 9.15Q946.21 9.15 946.02 9.15Q945.82 9.15 945.82 9.15L945.82 9.15L945.79 8.83L948.35 8.83ZM988.19 26.69L986.69 31.81L976.32 9.02L981.02 9.02L988.19 26.69ZM986.98 31.81L986.69 31.81L986.50 28.45L994.75 8.93L996.96 8.93L988.42 27.90Q988.35 28.03 988.13 28.53Q987.90 29.02 987.65 29.66Q987.39 30.30 987.20 30.90Q987.01 31.49 986.98 31.81L986.98 31.81ZM995.94 11.17L993.82 11.14Q994.21 10.18 993.73 9.66Q993.25 9.15 992.61 9.15L992.61 9.15L992.32 9.15L992.32 8.83L999.04 8.83L999.04 9.15Q999.04 9.15 998.90 9.15Q998.75 9.15 998.75 9.15L998.75 9.15Q998.05 9.15 997.25 9.62Q996.45 10.08 995.94 11.17L995.94 11.17ZM981.92 11.14L981.92 11.14L977.28 11.17Q976.77 10.08 975.98 9.62Q975.20 9.15 974.46 9.15L974.46 9.15Q974.46 9.15 974.34 9.15Q974.21 9.15 974.21 9.15L974.21 9.15L974.21 8.83L983.39 8.83L983.39 9.15L983.10 9.15Q982.50 9.15 982.03 9.66Q981.57 10.18 981.92 11.14ZM1016.80 8.38L1016.80 8.38Q1020.48 8.38 1023.25 9.81Q1026.02 11.23 1027.52 13.86Q1029.02 16.48 1029.02 20.03L1029.02 20.03Q1029.02 23.58 1027.52 26.21Q1026.02 28.83 1023.25 30.26Q1020.48 31.68 1016.80 31.68L1016.80 31.68Q1013.09 31.68 1010.34 30.26Q1007.58 28.83 1006.08 26.21Q1004.58 23.58 1004.58 20.03L1004.58 20.03Q1004.58 16.48 1006.08 13.86Q1007.58 11.23 1010.34 9.81Q1013.09 8.38 1016.80 8.38ZM1016.80 30.46L1016.80 30.46Q1019.20 30.46 1020.98 29.18Q1022.75 27.90 1023.73 25.57Q1024.70 23.23 1024.70 20.03L1024.70 20.03Q1024.70 16.83 1023.73 14.50Q1022.75 12.16 1020.98 10.88Q1019.20 9.60 1016.80 9.60L1016.80 9.60Q1014.40 9.60 1012.62 10.88Q1010.85 12.16 1009.87 14.50Q1008.90 16.83 1008.90 20.03L1008.90 20.03Q1008.90 23.23 1009.87 25.57Q1010.85 27.90 1012.62 29.18Q1014.40 30.46 1016.80 30.46ZM1058.85 21.89L1059.10 21.89L1059.17 27.23Q1058.43 28.48 1057.22 29.49Q1056.00 30.50 1054.26 31.09Q1052.51 31.68 1050.18 31.68L1050.18 31.68Q1046.46 31.65 1043.65 30.24Q1040.83 28.83 1039.28 26.22Q1037.73 23.62 1037.73 20L1037.73 20Q1037.73 16.45 1039.26 13.84Q1040.80 11.23 1043.62 9.81Q1046.43 8.38 1050.30 8.38L1050.30 8.38Q1052.80 8.38 1054.78 8.94Q1056.77 9.50 1058.14 10.27L1058.14 10.27L1058.40 15.42L1058.11 15.42Q1057.31 12.38 1055.28 10.99Q1053.25 9.60 1050.53 9.60L1050.53 9.60Q1047.90 9.60 1046.00 10.86Q1044.10 12.13 1043.06 14.45Q1042.02 16.77 1042.02 19.94L1042.02 19.94Q1042.02 23.10 1043.02 25.46Q1044.03 27.81 1045.87 29.10Q1047.71 30.40 1050.18 30.46L1050.18 30.46Q1052.58 30.46 1054.35 29.65Q1056.13 28.83 1057.26 26.94Q1058.40 25.06 1058.85 21.89L1058.85 21.89ZM1076.19 13.38L1077.70 8.26L1087.81 31.04L1083.07 31.04L1076.19 13.38ZM1068.70 28.90L1070.82 28.90Q1070.56 29.54 1070.72 29.98Q1070.88 30.43 1071.26 30.67Q1071.65 30.91 1072.03 30.91L1072.03 30.91L1072.32 30.91L1072.32 31.23L1065.60 31.23L1065.60 30.91Q1065.60 30.91 1065.74 30.91Q1065.89 30.91 1065.89 30.91L1065.89 30.91Q1066.62 30.91 1067.41 30.45Q1068.19 29.98 1068.70 28.90L1068.70 28.90ZM1077.41 8.26L1077.70 8.26L1077.86 11.62L1069.89 31.14L1067.71 31.14L1075.97 12.16Q1076.03 12.03 1076.24 11.54Q1076.45 11.04 1076.72 10.40Q1076.99 9.76 1077.18 9.17Q1077.38 8.58 1077.41 8.26L1077.41 8.26ZM1071.81 23.23L1081.44 23.23L1081.44 24.45L1071.81 24.45L1071.81 23.23ZM1082.24 28.90L1082.24 28.90L1086.85 28.90Q1087.36 29.98 1088.14 30.45Q1088.93 30.91 1089.66 30.91L1089.66 30.91Q1089.66 30.91 1089.79 30.91Q1089.92 30.91 1089.92 30.91L1089.92 30.91L1089.92 31.23L1080.74 31.23L1080.74 30.91L1081.02 30.91Q1081.63 30.91 1082.11 30.38Q1082.59 29.86 1082.24 28.90ZM1100.48 8.93L1104.38 8.93L1104.38 31.23L1100.48 31.23L1100.48 8.93ZM1092.51 8.80L1112.32 8.80L1112.32 10.02L1092.51 10.02L1092.51 8.80ZM1109.22 9.92L1112.32 9.92L1112.32 13.28L1112.00 13.25L1112.00 12.83Q1112.00 11.58 1111.23 10.82Q1110.46 10.05 1109.22 10.02L1109.22 10.02L1109.22 9.92ZM1112.32 8.22L1112.32 8.22L1112.32 9.15L1108.42 8.80Q1109.12 8.80 1109.90 8.70Q1110.69 8.61 1111.36 8.48Q1112.03 8.35 1112.32 8.22ZM1100.48 28.90L1100.58 28.90L1100.58 31.23L1098.02 31.23L1098.02 30.91Q1098.02 30.91 1098.22 30.91Q1098.43 30.91 1098.43 30.91L1098.43 30.91Q1099.26 30.91 1099.86 30.32Q1100.45 29.73 1100.48 28.90L1100.48 28.90ZM1104.29 31.23L1104.29 28.90L1104.38 28.90Q1104.42 29.73 1105.01 30.32Q1105.60 30.91 1106.43 30.91L1106.43 30.91Q1106.43 30.91 1106.64 30.91Q1106.85 30.91 1106.85 30.91L1106.85 30.91L1106.85 31.23L1104.29 31.23ZM1092.51 9.92L1095.62 9.92L1095.62 10.02Q1094.37 10.05 1093.60 10.82Q1092.83 11.58 1092.83 12.83L1092.83 12.83L1092.83 13.25L1092.51 13.28L1092.51 9.92ZM1092.51 9.15L1092.51 8.22Q1092.83 8.35 1093.49 8.48Q1094.14 8.61 1094.94 8.70Q1095.74 8.80 1096.42 8.80L1096.42 8.80L1092.51 9.15ZM1122.24 8.83L1126.14 8.83L1126.14 31.23L1122.24 31.23L1122.24 8.83ZM1126.05 29.98L1134.62 29.98L1135.17 31.23L1126.05 31.23L1126.05 29.98ZM1126.05 19.58L1133.41 19.58L1133.41 20.80L1126.05 20.80L1126.05 19.58ZM1126.05 8.83L1134.91 8.83L1134.91 10.08L1126.05 10.08L1126.05 8.83ZM1136.54 25.15L1136.86 25.15L1135.26 31.23L1129.28 31.23L1130.43 29.98Q1132.06 29.98 1133.25 29.39Q1134.43 28.80 1135.23 27.70Q1136.03 26.59 1136.54 25.15L1136.54 25.15ZM1130.75 20.74L1133.41 20.74L1133.41 23.49L1133.09 23.49L1133.09 23.14Q1133.09 22.14 1132.42 21.47Q1131.74 20.80 1130.75 20.80L1130.75 20.80L1130.75 20.74ZM1133.09 16.90L1133.41 16.90L1133.41 19.65L1130.75 19.65L1130.75 19.58Q1131.74 19.55 1132.42 18.88Q1133.09 18.21 1133.09 17.22L1133.09 17.22L1133.09 16.90ZM1131.78 9.98L1134.91 9.98L1134.91 13.31L1134.59 13.31L1134.59 12.86Q1134.59 11.65 1133.82 10.86Q1133.06 10.08 1131.78 10.05L1131.78 10.05L1131.78 9.98ZM1134.91 8.26L1134.91 8.26L1134.91 9.18L1131.01 8.83Q1131.71 8.83 1132.50 8.74Q1133.28 8.64 1133.95 8.51Q1134.62 8.38 1134.91 8.26ZM1122.24 28.90L1122.34 28.90L1122.34 31.23L1119.78 31.23L1119.78 30.91Q1119.78 30.91 1119.98 30.91Q1120.19 30.91 1120.19 30.91L1120.19 30.91Q1121.02 30.91 1121.62 30.32Q1122.21 29.73 1122.24 28.90L1122.24 28.90ZM1122.34 8.83L1122.34 11.17L1122.24 11.17Q1122.21 10.34 1121.62 9.74Q1121.02 9.15 1120.19 9.15L1120.19 9.15Q1120.19 9.15 1119.98 9.15Q1119.78 9.15 1119.78 9.15L1119.78 9.15L1119.78 8.83L1122.34 8.83ZM1151.87 8.38L1151.87 8.38Q1152.48 8.38 1153.31 8.45Q1154.14 8.51 1154.99 8.62Q1155.84 8.74 1156.51 8.85Q1157.18 8.96 1157.44 9.09L1157.44 9.09L1157.18 13.15L1156.86 13.15Q1156.86 11.52 1155.70 10.56Q1154.53 9.60 1152.67 9.60L1152.67 9.60Q1150.82 9.60 1149.71 10.56Q1148.61 11.52 1148.58 12.90L1148.58 12.90Q1148.51 13.70 1149.04 14.45Q1149.57 15.20 1150.46 15.84L1150.46 15.84L1156.64 20.42Q1157.95 21.28 1158.56 22.51Q1159.17 23.74 1159.10 25.28L1159.10 25.28Q1159.01 28.22 1156.98 29.95Q1154.94 31.68 1151.46 31.68L1151.46 31.68Q1150.27 31.68 1149.04 31.47Q1147.81 31.26 1146.78 30.83Q1145.76 30.40 1145.15 29.79L1145.15 29.79Q1144.96 29.15 1144.99 28.24Q1145.02 27.33 1145.25 26.35Q1145.47 25.38 1145.79 24.70L1145.79 24.70L1146.08 24.70Q1145.95 26.34 1146.62 27.66Q1147.30 28.99 1148.59 29.74Q1149.89 30.50 1151.65 30.46L1151.65 30.46Q1153.63 30.40 1154.83 29.34Q1156.03 28.29 1156.03 26.62L1156.03 26.62Q1156.03 25.66 1155.52 24.88Q1155.01 24.10 1153.92 23.46L1153.92 23.46L1148.13 19.07Q1146.66 18.11 1146.03 16.75Q1145.41 15.39 1145.50 13.92L1145.50 13.92Q1145.60 12.38 1146.37 11.12Q1147.14 9.86 1148.53 9.12Q1149.92 8.38 1151.87 8.38ZM1154.11 8.70L1157.47 8.70L1157.44 9.38L1154.11 9.38L1154.11 8.70Z" transform="translate(0, 0)"></path></g></svg></svg>